<svg xmlns="http://www.w3.org/2000/svg" viewBox="0 0 1000 460" role="img" aria-labelledby="title desc">
  <title id="title">Türkiye İl Haritası</title>
  <desc id="desc">Türkiye illerinin gösterildiği mavi tonlarda stilize harita</desc>
  <defs>
    <linearGradient id="bgGradient" x1="0" x2="0" y1="0" y2="1">
      <stop offset="0%" stop-color="#f2f6fb" />
      <stop offset="100%" stop-color="#dce6f0" />
    </linearGradient>
    <linearGradient id="mapGradient" x1="0" y1="0" x2="1" y2="1">
      <stop offset="0%" stop-color="#4a86b7" />
      <stop offset="100%" stop-color="#2f6c96" />
    </linearGradient>
    <filter id="shadow" x="-10%" y="-10%" width="120%" height="120%">
      <feDropShadow dx="0" dy="18" stdDeviation="16" flood-opacity="0.18" flood-color="#1f3d57" />
    </filter>
  </defs>
  <rect width="1000" height="460" fill="url(#bgGradient)" rx="22" />
  <g filter="url(#shadow)">
    <path fill="url(#mapGradient)" stroke="#ffffff" stroke-width="2" d="M58 276c21-20 44-36 83-42 26-4 51-6 72-22 41-31 83-57 134-54 41 2 68 17 107 12 32-4 62-22 95-30 51-13 99-2 146 13 39 13 82 10 122 20 26 7 48 23 74 28 22 4 45-2 68-5 35-4 57 16 84 33 15 10 36 17 46 35 12 21 5 39-9 57-11 13-27 18-42 24-29 11-62 17-93 15-25-1-45-19-69-18-37 2-71 20-106 32-37 13-76 10-113 19-41 10-83 16-125 17-40 0-78-12-117-18-40-6-82-5-121-16-32-9-59-30-92-38-32-8-65-4-96-15-33-12-62-33-94-47-30-14-49-29-59-51-5-11-5-23 10-35z" />
    <g fill="none" stroke="#ffffff" stroke-width="1.6" opacity="0.72" stroke-linecap="round">
      <path d="M127 258c62-33 119-71 175-68 46 3 80 24 124 18 37-5 73-24 110-33 51-13 94 7 141 19 33 8 70 4 102 16" />
      <path d="M210 320c36-22 70-53 115-47 44 6 84 37 131 34 42-3 78-34 120-46 49-14 97 9 147 22 42 11 87 13 127 7" />
      <path d="M333 219c-24 54 15 115 63 145 49 30 117 38 175 28 63-11 123-44 185-55 37-6 73 0 108 13" />
      <path d="M640 196c12 37 41 74 77 92 35 17 79 18 118 8 42-11 78-35 120-46" />
      <path d="M461 173c10 41 5 88 34 123 30 36 83 49 128 40 48-9 87-39 135-49" />
      <path d="M85 258c60 47 129 88 206 99 69 10 139-7 208 2 55 7 107 34 163 41 52 7 105-8 156-4" />
    </g>
    <g fill="#2f6c96" opacity="0.45">
      <path d="M169 205c14-18 31-31 51-36 27-7 54 5 80 11 27 6 50 4 76-4 24-7 50-23 74-21 27 2 49 22 76 27 38 7 79-15 117-3 36 12 57 49 90 67 34 19 72 18 110 20" />
      <path d="M266 335c18-14 41-23 64-22 28 1 54 15 82 18 27 3 52-7 78-12 31-6 59 3 88 8 35 6 69 2 103-6 28-7 58-8 84 5" />
      <path d="M545 300c10-16 28-23 46-28 25-6 50-8 75-6 30 2 59 10 89 11 21 1 42-3 63-5" />
    </g>
  </g>
</svg>
